<svg width="100" height="48" viewBox="0 0 100 48" fill="none" xmlns="http://www.w3.org/2000/svg">
<g clip-path="url(#clip0_61_59)">
<mask id="mask0_61_59" style="mask-type:luminance" maskUnits="userSpaceOnUse" x="0" y="0" width="100" height="48">
<path d="M100 0H0V48H100V0Z" fill="white"/>
</mask>
<g mask="url(#mask0_61_59)">
<path d="M1.15931 23.9095L36.7685 46.839L98.5131 46.7433L98.6036 35.2876L66.6929 1.16101H1.15931V23.9095ZM36.5987 48C36.4874 48 36.3785 47.9678 36.2852 47.9078L0.266099 24.7145C0.100078 24.6079 0 24.4237 0 24.2264V0.580508C0 0.259961 0.259634 0 0.579524 0H66.9442C67.1045 0 67.258 0.0665415 67.3678 0.183832L99.608 34.6636C99.7095 34.7724 99.7657 34.9161 99.7642 35.0649L99.6679 47.3276C99.6657 47.646 99.4073 47.9029 99.0898 47.9033L36.5987 48Z" fill="white"/>
<path d="M37.6992 42.5216H40.7602V41.6494H37.6992V42.5216ZM37.6992 40.3286H42.0794V43.842H36.3804V38.136H42.0794V39.4485H37.6992V40.3286Z" fill="white"/>
<path d="M48.3725 38.136H49.6915V43.842H43.9927V42.5216H48.3725V41.6494H43.9927V38.136H45.3114V40.3286H48.3725V38.136Z" fill="white"/>
<path d="M53.5749 42.5214H56.1554V39.4483H54.2993L53.5749 40.4589V42.5214ZM57.4746 42.4966H58.1262V45.1295H56.815V43.8418H52.9236V45.1295H51.6045V42.4966H52.2641V39.9046L53.5424 38.1357H57.4746V42.4966Z" fill="white"/>
<path d="M64.4193 38.136H65.7385V43.842H60.0396V42.5216H64.4193V41.6494H60.0396V38.136H61.3583V40.3286H64.4193V38.136Z" fill="white"/>
<path d="M73.3505 42.5214H74.0103V45.1543H72.6915V43.8418H67.6519V38.1357H68.9709V42.5214H69.8417V38.1357H71.1608V42.5214H72.0316V38.1357H73.3505V42.5214Z" fill="white"/>
<path d="M81.2147 39.4565H76.8351V40.3284H81.2147V41.6495H76.8351V42.5218H81.2147V43.8418H75.5161V38.1357H81.2147V39.4565Z" fill="white"/>
<path d="M88.8272 38.136V39.4485H84.4476V43.842H83.1279V38.136H88.8272Z" fill="white"/>
<path d="M92.0599 42.5216H95.1205V39.4485H92.0599V42.5216ZM90.7402 38.136H96.4395V43.842H90.7402V38.136Z" fill="white"/>
<path d="M24.8468 4.46899V15.4937H19.865L24.8468 22.3745H19.8906L14.9089 15.4937H11.1022V22.3745H6.96338V4.46899H11.1022V11.3499H20.7082V4.46899H24.8468Z" fill="white"/>
<path d="M31.5395 18.2308H41.1453V8.58719H31.5395V18.2308ZM27.4009 4.46899H45.2843V22.3746H27.4009V4.46899Z" fill="white"/>
<path d="M54.0212 18.231H62.1197V8.58745H56.2949L54.0212 11.7592V18.231ZM66.2586 18.1541H68.3025V26.4163H64.1893V22.3748H51.9774V26.4163H47.8384V18.1541H49.9081V10.0197L53.9189 4.46924H66.2586V18.1541Z" fill="white"/>
</g>
</g>
<defs>
<clipPath id="clip0_61_59">
<rect width="100" height="48" fill="white"/>
</clipPath>
</defs>
</svg>
